# Blender 5.1.2
# www.blender.org
mtllib vaso.mtl
o Base
v 0.097000 -0.007500 0.002500
v 0.297000 -0.007500 0.002500
v -0.302000 -0.007500 0.002500
v 0.297000 0.007500 0.002500
v 0.297000 -0.007500 -0.002500
v 0.097000 0.007500 0.002500
v -0.102000 -0.007500 0.002500
v 0.297000 0.007500 -0.002500
v -0.407500 -0.007500 0.100000
v 0.302000 -0.007500 0.002500
v 0.302000 0.007500 0.002500
v 0.097000 -0.007500 -0.002500
v 0.097000 0.007500 -0.002500
v 0.302000 -0.007500 -0.002500
v 0.302000 0.007500 -0.002500
v -0.102000 0.007500 0.002500
v 0.102000 -0.007500 0.002500
v -0.302000 0.007500 0.002500
v 0.102000 0.007500 0.002500
v -0.102000 -0.007500 -0.002500
v 0.102000 -0.007500 -0.002500
v -0.102000 0.007500 -0.002500
v -0.407500 0.007500 0.100000
v 0.102000 0.007500 -0.002500
v -0.097000 -0.007500 0.002500
v -0.302000 -0.007500 -0.002500
v -0.407500 -0.007500 -0.100000
v -0.097000 0.007500 0.002500
v -0.097000 -0.007500 -0.002500
v -0.302000 0.007500 -0.002500
v -0.097000 0.007500 -0.002500
v -0.407500 0.007500 -0.100000
v 0.407500 -0.007500 0.100000
v -0.297000 -0.007500 0.002500
v -0.297000 0.007500 0.002500
v 0.407500 0.007500 0.100000
v 0.407500 -0.007500 -0.100000
v -0.297000 -0.007500 -0.002500
v 0.407500 0.007500 -0.100000
v -0.297000 0.007500 -0.002500
v 0.244500 -0.007500 -0.100000
v 0.081500 -0.007500 -0.100000
v -0.081500 -0.007500 -0.100000
v -0.244500 -0.007500 -0.100000
v -0.244500 0.007500 -0.100000
v -0.081500 0.007500 -0.100000
v 0.081500 0.007500 -0.100000
v 0.244500 0.007500 -0.100000
v -0.244500 -0.007500 0.100000
v -0.081500 -0.007500 0.100000
v 0.081500 -0.007500 0.100000
v 0.244500 -0.007500 0.100000
v 0.244500 0.007500 0.100000
v 0.081500 0.007500 0.100000
v -0.081500 0.007500 0.100000
v -0.244500 0.007500 0.100000
v -0.244500 -0.007500 0.115000
v -0.081500 -0.007500 0.115000
v 0.081500 -0.007500 0.115000
v 0.244500 -0.007500 0.115000
v 0.244500 0.007500 0.115000
v 0.081500 0.007500 0.115000
v -0.081500 0.007500 0.115000
v -0.244500 0.007500 0.115000
v 0.244500 -0.007500 -0.115000
v 0.081500 -0.007500 -0.115000
v -0.081500 -0.007500 -0.115000
v -0.244500 -0.007500 -0.115000
v -0.244500 0.007500 -0.115000
v -0.081500 0.007500 -0.115000
v 0.081500 0.007500 -0.115000
v 0.244500 0.007500 -0.115000
v -0.407500 -0.007500 -0.033333
v -0.407500 -0.007500 0.033333
v -0.407500 0.007500 0.033333
v -0.407500 0.007500 -0.033333
v 0.407500 -0.007500 0.033333
v 0.407500 -0.007500 -0.033333
v 0.407500 0.007500 -0.033333
v 0.407500 0.007500 0.033333
v 0.422500 -0.007500 0.033333
v 0.422500 -0.007500 -0.033333
v 0.422500 0.007500 -0.033333
v 0.422500 0.007500 0.033333
v -0.422500 -0.007500 -0.033333
v -0.422500 -0.007500 0.033333
v -0.422500 0.007500 0.033333
v -0.422500 0.007500 -0.033333
v 0.244500 0.007500 -0.033333
v 0.244500 0.007500 0.033333
v 0.081500 0.007500 -0.033333
v 0.081500 0.007500 0.033333
v -0.081500 0.007500 -0.033333
v -0.081500 0.007500 0.033333
v -0.244500 0.007500 -0.033333
v -0.244500 0.007500 0.033333
v -0.244500 -0.007500 -0.033333
v -0.244500 -0.007500 0.033333
v -0.081500 -0.007500 -0.033333
v -0.081500 -0.007500 0.033333
v 0.081500 -0.007500 -0.033333
v 0.081500 -0.007500 0.033333
v 0.244500 -0.007500 -0.033333
v 0.244500 -0.007500 0.033333
vn -0.0000 -1.0000 -0.0000
vn -0.0000 1.0000 -0.0000
vn -0.0000 -0.0000 -1.0000
vn -0.0000 -0.0000 1.0000
vn -1.0000 -0.0000 -0.0000
vn 1.0000 -0.0000 -0.0000
vt 0.325000 0.666667
vt 0.375000 0.666667
vt 0.375000 0.750000
vt 0.325000 0.750000
vt 0.825000 0.666667
vt 0.875000 0.666667
vt 0.875000 0.750000
vt 0.825000 0.750000
vt 0.825000 0.500000
vt 0.775000 0.500000
vt 0.725000 0.500000
vt 0.675000 0.500000
vt 0.325000 0.500000
vt 0.275000 0.500000
vt 0.225000 0.500000
vt 0.175000 0.500000
vt 0.375000 0.300000
vt 0.625000 0.300000
vt 0.625000 0.350000
vt 0.375000 0.350000
vt 0.625000 0.400000
vt 0.375000 0.400000
vt 0.625000 0.450000
vt 0.375000 0.450000
vt 0.675000 0.750000
vt 0.725000 0.750000
vt 0.775000 0.750000
vt 0.175000 0.750000
vt 0.225000 0.750000
vt 0.275000 0.750000
vt 0.375000 0.800000
vt 0.625000 0.800000
vt 0.625000 0.850000
vt 0.375000 0.850000
vt 0.625000 0.900000
vt 0.375000 0.900000
vt 0.625000 0.950000
vt 0.375000 0.950000
vt 0.625000 0.666667
vt 0.675000 0.666667
vt 0.625000 0.750000
vt 0.725000 0.666667
vt 0.775000 0.666667
vt 0.125000 0.666667
vt 0.175000 0.666667
vt 0.125000 0.750000
vt 0.225000 0.666667
vt 0.275000 0.666667
vt 0.325000 0.583333
vt 0.275000 0.583333
vt 0.279755 0.621875
vt 0.279755 0.628125
vt 0.281288 0.628125
vt 0.281288 0.621875
vt 0.225000 0.583333
vt 0.175000 0.583333
vt 0.220245 0.628125
vt 0.220245 0.621875
vt 0.218712 0.621875
vt 0.218712 0.628125
vt 0.125000 0.500000
vt 0.125000 0.583333
vt 0.158896 0.628125
vt 0.158896 0.621875
vt 0.157362 0.621875
vt 0.157362 0.628125
vt 0.825000 0.583333
vt 0.775000 0.583333
vt 0.779755 0.621875
vt 0.779755 0.628125
vt 0.781288 0.628125
vt 0.781288 0.621875
vt 0.725000 0.583333
vt 0.675000 0.583333
vt 0.720245 0.628125
vt 0.720245 0.621875
vt 0.718712 0.621875
vt 0.718712 0.628125
vt 0.625000 0.500000
vt 0.625000 0.583333
vt 0.658896 0.628125
vt 0.658896 0.621875
vt 0.657362 0.621875
vt 0.657362 0.628125
vt 0.875000 0.583333
vt 0.375000 0.083333
vt 0.625000 0.083333
vt 0.625000 0.166667
vt 0.375000 0.166667
vt 0.375000 0.583333
vt 0.875000 0.500000
vt 0.841104 0.621875
vt 0.841104 0.628125
vt 0.842638 0.628125
vt 0.842638 0.621875
vt 0.375000 0.500000
vt 0.341104 0.621875
vt 0.341104 0.628125
vt 0.342638 0.628125
vt 0.342638 0.621875
vt 0.625000 0.000000
vt 0.375000 0.000000
vt 0.375000 0.250000
vt 0.625000 0.250000
vt 0.625000 1.000000
vt 0.375000 1.000000
s 0
usemtl 
f 104/1/1 77/2/1 33/3/1 52/4/1
f 96/5/2 75/6/2 23/7/2 56/8/2
f 45/9/2 46/10/2 70/10/2 69/9/2
f 46/10/2 47/11/2 71/11/2 70/10/2
f 47/11/2 48/12/2 72/12/2 71/11/2
f 41/13/1 42/14/1 66/14/1 65/13/1
f 42/14/1 43/15/1 67/15/1 66/14/1
f 43/15/1 44/16/1 68/16/1 67/15/1
f 68/17/3 69/18/3 70/19/3 67/20/3
f 67/20/3 70/19/3 71/21/3 66/22/3
f 66/22/3 71/21/3 72/23/3 65/24/3
f 53/25/2 54/26/2 62/26/2 61/25/2
f 54/26/2 55/27/2 63/27/2 62/26/2
f 55/27/2 56/8/2 64/8/2 63/27/2
f 49/28/1 50/29/1 58/29/1 57/28/1
f 50/29/1 51/30/1 59/30/1 58/29/1
f 51/30/1 52/4/1 60/4/1 59/30/1
f 60/31/4 61/32/4 62/33/4 59/34/4
f 59/34/4 62/33/4 63/35/4 58/36/4
f 58/36/4 63/35/4 64/37/4 57/38/4
f 80/39/2 90/40/2 53/25/2 36/41/2
f 90/40/2 92/42/2 54/26/2 53/25/2
f 92/42/2 94/43/2 55/27/2 54/26/2
f 94/43/2 96/5/2 56/8/2 55/27/2
f 74/44/1 98/45/1 49/28/1 9/46/1
f 98/45/1 100/47/1 50/29/1 49/28/1
f 100/47/1 102/48/1 51/30/1 50/29/1
f 102/48/1 104/1/1 52/4/1 51/30/1
f 42/14/1 41/13/1 103/49/1 101/50/1
f 101/50/1 12/51/1 1/52/1 102/48/1
f 102/48/1 1/52/1 17/53/1 21/54/1 12/51/1 101/50/1 103/49/1 104/1/1
f 43/15/1 42/14/1 101/50/1 99/55/1
f 99/55/1 101/50/1 102/48/1 100/47/1
f 44/16/1 43/15/1 99/55/1 97/56/1
f 100/47/1 25/57/1 29/58/1 99/55/1
f 97/56/1 99/55/1 29/58/1 20/59/1 7/60/1 25/57/1 100/47/1 98/45/1
f 27/61/1 44/16/1 97/56/1 73/62/1
f 98/45/1 34/63/1 38/64/1 97/56/1
f 97/56/1 38/64/1 26/65/1 3/66/1 34/63/1 98/45/1 74/44/1 73/62/1
f 46/10/2 45/9/2 95/67/2 93/68/2
f 31/69/2 28/70/2 94/43/2 93/68/2
f 94/43/2 28/70/2 16/71/2 22/72/2 31/69/2 93/68/2 95/67/2 96/5/2
f 47/11/2 46/10/2 93/68/2 91/73/2
f 91/73/2 93/68/2 94/43/2 92/42/2
f 48/12/2 47/11/2 91/73/2 89/74/2
f 6/75/2 13/76/2 91/73/2 92/42/2
f 89/74/2 91/73/2 13/76/2 24/77/2 19/78/2 6/75/2 92/42/2 90/40/2
f 39/79/2 48/12/2 89/74/2 79/80/2
f 4/81/2 8/82/2 89/74/2 90/40/2
f 4/81/2 90/40/2 80/39/2 79/80/2 89/74/2 8/82/2 15/83/2 11/84/2
f 73/62/1 74/44/1 86/44/1 85/62/1
f 75/6/2 76/85/2 88/85/2 87/6/2
f 44/16/5 45/9/5 69/18/5 68/16/5
f 86/86/5 87/87/5 88/88/5 85/89/5
f 74/44/4 75/6/4 87/87/4 86/44/4
f 77/2/1 78/90/1 82/90/1 81/2/1
f 41/13/6 65/13/6 72/23/6 48/12/6
f 82/90/6 83/80/6 84/39/6 81/2/6
f 45/9/2 32/91/2 76/85/2 95/67/2
f 40/92/2 35/93/2 96/5/2 95/67/2
f 75/6/2 96/5/2 35/93/2 18/94/2 30/95/2 40/92/2 95/67/2 76/85/2
f 41/13/1 37/96/1 78/90/1 103/49/1
f 103/49/1 5/97/1 2/98/1 104/1/1
f 103/49/1 78/90/1 77/2/1 104/1/1 2/98/1 10/99/1 14/100/1 5/97/1
f 61/32/6 60/31/6 52/4/6 53/25/6
f 79/80/2 80/39/2 84/39/2 83/80/2
f 52/4/4 33/3/4 36/41/4 53/25/4
f 80/39/6 36/41/6 33/3/6 77/2/6
f 77/2/4 81/2/4 84/39/4 80/39/4
f 48/12/3 39/79/3 37/96/3 41/13/3
f 78/90/3 79/80/3 83/80/3 82/90/3
f 78/90/6 37/96/6 39/79/6 79/80/6
f 44/16/3 27/61/3 32/91/3 45/9/3
f 76/85/5 32/91/5 27/61/5 73/62/5
f 73/62/3 85/62/3 88/88/3 76/85/3
f 74/44/5 9/46/5 23/7/5 75/6/5
f 56/8/4 23/7/4 9/46/4 49/28/4
f 49/28/5 57/28/5 64/37/5 56/8/5
f 18/101/6 3/102/6 26/103/6 30/104/6
f 30/104/4 26/103/4 38/96/4 40/79/4
f 35/41/5 40/79/5 38/96/5 34/3/5
f 18/105/3 35/41/3 34/3/3 3/106/3
f 16/101/6 7/102/6 20/103/6 22/104/6
f 22/104/4 20/103/4 29/96/4 31/79/4
f 28/41/5 31/79/5 29/96/5 25/3/5
f 16/105/3 28/41/3 25/3/3 7/106/3
f 6/101/6 1/102/6 12/103/6 13/104/6
f 13/104/4 12/103/4 21/96/4 24/79/4
f 19/41/5 24/79/5 21/96/5 17/3/5
f 6/105/3 19/41/3 17/3/3 1/106/3
f 4/101/6 2/102/6 5/103/6 8/104/6
f 8/104/4 5/103/4 14/96/4 15/79/4
f 11/41/5 15/79/5 14/96/5 10/3/5
f 4/105/3 11/41/3 10/3/3 2/106/3
o Tras
v -0.407500 0.207500 0.115000
v -0.407500 0.207500 0.100000
v -0.407500 0.007500 0.115000
v -0.407500 0.007500 0.100000
v 0.407500 0.207500 0.115000
v 0.407500 0.207500 0.100000
v 0.407500 0.007500 0.115000
v 0.407500 0.007500 0.100000
v -0.407500 0.222500 0.115000
v -0.407500 0.222500 0.100000
v 0.407500 0.222500 0.115000
v 0.407500 0.222500 0.100000
v -0.407500 -0.007500 0.115000
v -0.407500 -0.007500 0.100000
v 0.407500 -0.007500 0.115000
v 0.407500 -0.007500 0.100000
v 0.422500 0.207500 0.115000
v 0.422500 0.207500 0.100000
v 0.422500 0.007500 0.115000
v 0.422500 0.007500 0.100000
v 0.422500 0.222500 0.115000
v 0.422500 0.222500 0.100000
v 0.422500 -0.007500 0.115000
v 0.422500 -0.007500 0.100000
v -0.422500 0.207500 0.115000
v -0.422500 0.207500 0.100000
v -0.422500 0.007500 0.115000
v -0.422500 0.007500 0.100000
v -0.422500 0.222500 0.115000
v -0.422500 0.222500 0.100000
v -0.422500 -0.007500 0.115000
v -0.422500 -0.007500 0.100000
v 0.244500 0.007500 0.115000
v 0.081500 0.007500 0.115000
v -0.081500 0.007500 0.115000
v -0.244500 0.007500 0.115000
v -0.244500 0.007500 0.100000
v -0.081500 0.007500 0.100000
v 0.081500 0.007500 0.100000
v 0.244500 0.007500 0.100000
v -0.244500 0.207500 0.115000
v -0.081500 0.207500 0.115000
v 0.081500 0.207500 0.115000
v 0.244500 0.207500 0.115000
v 0.244500 0.207500 0.100000
v 0.081500 0.207500 0.100000
v -0.081500 0.207500 0.100000
v -0.244500 0.207500 0.100000
v -0.244500 0.222500 0.115000
v -0.081500 0.222500 0.115000
v 0.081500 0.222500 0.115000
v 0.244500 0.222500 0.115000
v 0.244500 0.222500 0.100000
v 0.081500 0.222500 0.100000
v -0.081500 0.222500 0.100000
v -0.244500 0.222500 0.100000
v 0.244500 -0.007500 0.115000
v -0.244500 -0.007500 0.115000
v -0.244500 -0.007500 0.100000
v 0.244500 -0.007500 0.100000
vn -0.0000 -0.0000 1.0000
vn -0.0000 -0.0000 -1.0000
vn -0.0000 1.0000 -0.0000
vn -0.0000 -1.0000 -0.0000
vn 1.0000 -0.0000 -0.0000
vn -1.0000 -0.0000 -0.0000
vt 0.125000 0.500000
vt 0.625000 0.500000
vt 0.625000 0.750000
vt 0.875000 0.750000
vt 0.325000 0.500000
vt 0.375000 0.500000
vt 0.375000 0.750000
vt 0.325000 0.750000
vt 0.825000 0.500000
vt 0.875000 0.500000
vt 0.825000 0.750000
vt 0.375000 0.950000
vt 0.625000 0.950000
vt 0.625000 1.000000
vt 0.375000 1.000000
vt 0.375000 0.450000
vt 0.625000 0.450000
vt 0.175000 0.500000
vt 0.675000 0.500000
vt 0.375000 0.000000
vt 0.625000 0.000000
vt 0.625000 0.250000
vt 0.375000 0.250000
vt 0.125000 0.750000
vt 0.625000 0.300000
vt 0.375000 0.300000
vt 0.675000 0.750000
vt 0.725000 0.750000
vt 0.775000 0.750000
vt 0.175000 0.750000
vt 0.225000 0.750000
vt 0.275000 0.750000
vt 0.625000 0.800000
vt 0.375000 0.800000
vt 0.625000 0.850000
vt 0.375000 0.850000
vt 0.625000 0.900000
vt 0.375000 0.900000
vt 0.725000 0.500000
vt 0.775000 0.500000
vt 0.225000 0.500000
vt 0.275000 0.500000
s 0
f 117/107/7 107/107/7 131/107/7 135/107/7
f 112/108/8 110/109/8 122/109/8 124/108/8
f 110/109/8 116/109/8 126/109/8 122/109/8
f 114/110/8 106/110/8 130/110/8 134/110/8
f 137/111/7 111/112/7 109/113/7 148/114/7
f 141/115/8 108/116/8 106/110/8 152/117/8
f 153/118/9 160/119/9 114/120/9 113/121/9
f 148/114/7 109/113/7 115/113/7 156/114/7
f 152/117/8 106/110/8 114/110/8 160/117/8
f 119/112/10 120/108/10 128/108/10 127/112/10
f 161/122/10 164/123/10 120/108/10 119/112/10
f 140/124/7 107/107/7 117/107/7 162/124/7
f 144/125/8 112/108/8 120/108/8 164/125/8
f 113/121/9 114/120/9 134/120/9 133/121/9
f 124/108/11 123/112/11 127/112/11 128/108/11
f 123/112/11 124/108/11 122/109/11 121/113/11
f 121/113/11 122/109/11 126/109/11 125/113/11
f 111/112/7 119/112/7 127/112/7 123/112/7
f 116/109/9 115/113/9 125/113/9 126/109/9
f 109/113/7 111/112/7 123/112/7 121/113/7
f 115/113/7 109/113/7 121/113/7 125/113/7
f 120/108/8 112/108/8 124/108/8 128/108/8
f 129/126/12 130/127/12 132/128/12 131/129/12
f 130/127/12 129/126/12 133/126/12 134/127/12
f 131/129/12 132/128/12 136/128/12 135/129/12
f 106/110/8 108/116/8 132/116/8 130/110/8
f 107/107/7 105/130/7 129/130/7 131/107/7
f 118/128/10 117/129/10 135/129/10 136/128/10
f 108/116/8 118/116/8 136/116/8 132/116/8
f 105/130/7 113/130/7 133/130/7 129/130/7
f 108/116/8 141/115/8 163/115/8 118/116/8
f 111/112/7 137/111/7 161/111/7 119/112/7
f 117/129/10 118/128/10 163/131/10 162/132/10
f 110/109/8 149/133/8 157/133/8 116/109/8
f 149/133/8 150/134/8 158/134/8 157/133/8
f 150/134/8 151/135/8 159/135/8 158/134/8
f 151/135/8 152/117/8 160/117/8 159/135/8
f 105/130/7 145/136/7 153/136/7 113/130/7
f 145/136/7 146/137/7 154/137/7 153/136/7
f 146/137/7 147/138/7 155/138/7 154/137/7
f 147/138/7 148/114/7 156/114/7 155/138/7
f 115/113/9 116/109/9 157/139/9 156/140/9
f 156/140/9 157/139/9 158/141/9 155/142/9
f 155/142/9 158/141/9 159/143/9 154/144/9
f 154/144/9 159/143/9 160/119/9 153/118/9
f 112/108/8 144/125/8 149/133/8 110/109/8
f 144/125/8 143/145/8 150/134/8 149/133/8
f 143/145/8 142/146/8 151/135/8 150/134/8
f 142/146/8 141/115/8 152/117/8 151/135/8
f 107/107/7 140/124/7 145/136/7 105/130/7
f 140/124/7 139/147/7 146/137/7 145/136/7
f 139/147/7 138/148/7 147/138/7 146/137/7
f 138/148/7 137/111/7 148/114/7 147/138/7
f 137/111/10 138/148/10 143/145/10 144/125/10
f 143/145/10 138/148/10 139/147/10 142/146/10
f 142/146/10 139/147/10 140/124/10 141/115/10
f 140/124/11 162/124/11 163/131/11 141/115/11
f 137/111/12 144/125/12 164/123/12 161/111/12
o Esquerda
v 0.407500 0.222500 0.100000
v 0.422500 0.222500 0.100000
v 0.407500 0.222500 -0.100000
v 0.422500 0.222500 -0.100000
v 0.407500 0.007500 0.100000
v 0.422500 0.007500 0.100000
v 0.407500 0.007500 -0.100000
v 0.422500 0.007500 -0.100000
v 0.407500 -0.007500 0.100000
v 0.422500 -0.007500 0.100000
v 0.407500 -0.007500 -0.100000
v 0.422500 -0.007500 -0.100000
v 0.407500 0.222500 -0.033333
v 0.407500 0.222500 0.033333
v 0.422500 0.222500 0.033333
v 0.422500 0.222500 -0.033333
v 0.407500 0.007500 0.033333
v 0.407500 0.007500 -0.033333
v 0.422500 0.007500 -0.033333
v 0.422500 0.007500 0.033333
v 0.407500 -0.007500 0.033333
v 0.407500 -0.007500 -0.033333
v 0.422500 -0.007500 -0.033333
v 0.422500 -0.007500 0.033333
vn -0.0000 1.0000 -0.0000
vn -0.0000 -0.0000 -1.0000
vn 1.0000 -0.0000 -0.0000
vn -0.0000 -0.0000 1.0000
vn -1.0000 -0.0000 -0.0000
vn -0.0000 -1.0000 -0.0000
vt 0.375000 0.166667
vt 0.625000 0.166667
vt 0.625000 0.250000
vt 0.375000 0.250000
vt 0.625000 0.500000
vt 0.375000 0.500000
vt 0.625000 0.666667
vt 0.625000 0.750000
vt 0.375000 0.750000
vt 0.625000 1.000000
vt 0.375000 1.000000
vt 0.125000 0.666667
vt 0.375000 0.666667
vt 0.125000 0.750000
vt 0.875000 0.666667
vt 0.875000 0.750000
vt 0.375000 0.583333
vt 0.625000 0.583333
vt 0.875000 0.500000
vt 0.875000 0.583333
vt 0.125000 0.500000
vt 0.125000 0.583333
vt 0.375000 0.000000
vt 0.625000 0.000000
vt 0.625000 0.083333
vt 0.375000 0.083333
s 0
f 177/149/13 180/150/13 168/151/13 167/152/13
f 167/152/14 168/151/14 172/153/14 171/154/14
f 184/155/15 170/156/15 174/156/15 188/155/15
f 169/157/16 170/156/16 166/158/16 165/159/16
f 178/160/17 181/161/17 169/157/17 165/162/17
f 184/155/15 179/163/15 166/164/15 170/156/15
f 185/161/18 188/155/18 174/156/18 173/157/18
f 171/154/14 172/153/14 176/153/14 175/154/14
f 170/156/16 169/157/16 173/157/16 174/156/16
f 182/165/17 171/154/17 175/154/17 186/165/17
f 169/157/17 181/161/17 185/161/17 173/157/17
f 181/161/14 184/155/14 188/155/14 185/161/14
f 175/154/18 176/153/18 187/166/18 186/165/18
f 182/165/16 186/165/16 187/166/16 183/166/16
f 172/153/15 168/167/15 180/168/15 183/166/15
f 183/166/15 180/168/15 179/163/15 184/155/15
f 167/169/17 171/154/17 182/165/17 177/170/17
f 177/170/17 182/165/17 181/161/17 178/160/17
f 172/153/15 183/166/15 187/166/15 176/153/15
f 181/161/18 182/165/18 183/166/18 184/155/18
f 165/171/13 166/172/13 179/173/13 178/174/13
f 178/174/13 179/173/13 180/150/13 177/149/13
o Direita
v -0.422500 0.222500 0.100000
v -0.407500 0.222500 0.100000
v -0.422500 0.222500 -0.100000
v -0.407500 0.222500 -0.100000
v -0.422500 0.007500 0.100000
v -0.407500 0.007500 0.100000
v -0.422500 0.007500 -0.100000
v -0.407500 0.007500 -0.100000
v -0.422500 -0.007500 0.100000
v -0.407500 -0.007500 0.100000
v -0.422500 -0.007500 -0.100000
v -0.407500 -0.007500 -0.100000
v -0.422500 0.222500 -0.033333
v -0.422500 0.222500 0.033333
v -0.407500 0.222500 0.033333
v -0.407500 0.222500 -0.033333
v -0.422500 0.007500 0.033333
v -0.422500 0.007500 -0.033333
v -0.407500 0.007500 -0.033333
v -0.407500 0.007500 0.033333
v -0.422500 -0.007500 0.033333
v -0.422500 -0.007500 -0.033333
v -0.407500 -0.007500 -0.033333
v -0.407500 -0.007500 0.033333
vn -0.0000 1.0000 -0.0000
vn -0.0000 -0.0000 -1.0000
vn 1.0000 -0.0000 -0.0000
vn -0.0000 -0.0000 1.0000
vn -1.0000 -0.0000 -0.0000
vn -0.0000 -1.0000 -0.0000
vt 0.375000 0.166667
vt 0.625000 0.166667
vt 0.625000 0.250000
vt 0.375000 0.250000
vt 0.625000 0.500000
vt 0.375000 0.500000
vt 0.625000 0.666667
vt 0.625000 0.750000
vt 0.375000 0.750000
vt 0.625000 1.000000
vt 0.375000 1.000000
vt 0.125000 0.666667
vt 0.375000 0.666667
vt 0.125000 0.750000
vt 0.875000 0.666667
vt 0.875000 0.750000
vt 0.375000 0.583333
vt 0.625000 0.583333
vt 0.875000 0.500000
vt 0.875000 0.583333
vt 0.125000 0.500000
vt 0.125000 0.583333
vt 0.375000 0.000000
vt 0.625000 0.000000
vt 0.625000 0.083333
vt 0.375000 0.083333
s 0
f 201/175/19 204/176/19 192/177/19 191/178/19
f 191/178/20 192/177/20 196/179/20 195/180/20
f 208/181/21 194/182/21 198/182/21 212/181/21
f 193/183/22 194/182/22 190/184/22 189/185/22
f 202/186/23 205/187/23 193/183/23 189/188/23
f 208/181/21 203/189/21 190/190/21 194/182/21
f 209/187/24 212/181/24 198/182/24 197/183/24
f 195/180/20 196/179/20 200/179/20 199/180/20
f 194/182/22 193/183/22 197/183/22 198/182/22
f 206/191/23 195/180/23 199/180/23 210/191/23
f 193/183/23 205/187/23 209/187/23 197/183/23
f 205/187/20 208/181/20 212/181/20 209/187/20
f 199/180/24 200/179/24 211/192/24 210/191/24
f 206/191/22 210/191/22 211/192/22 207/192/22
f 196/179/21 192/193/21 204/194/21 207/192/21
f 207/192/21 204/194/21 203/189/21 208/181/21
f 191/195/23 195/180/23 206/191/23 201/196/23
f 201/196/23 206/191/23 205/187/23 202/186/23
f 196/179/21 207/192/21 211/192/21 200/179/21
f 205/187/24 206/191/24 207/192/24 208/181/24
f 189/197/19 190/198/19 203/199/19 202/200/19
f 202/200/19 203/199/19 204/176/19 201/175/19
o Frente
v -0.407500 0.207500 -0.100000
v -0.407500 0.207500 -0.115000
v -0.407500 0.007500 -0.100000
v -0.407500 0.007500 -0.115000
v 0.407500 0.207500 -0.100000
v 0.407500 0.207500 -0.115000
v 0.407500 0.007500 -0.100000
v 0.407500 0.007500 -0.115000
v -0.407500 0.222500 -0.100000
v -0.407500 0.222500 -0.115000
v 0.407500 0.222500 -0.100000
v 0.407500 0.222500 -0.115000
v -0.407500 -0.007500 -0.100000
v -0.407500 -0.007500 -0.115000
v 0.407500 -0.007500 -0.100000
v 0.407500 -0.007500 -0.115000
v 0.422500 0.207500 -0.100000
v 0.422500 0.207500 -0.115000
v 0.422500 0.007500 -0.100000
v 0.422500 0.007500 -0.115000
v 0.422500 0.222500 -0.100000
v 0.422500 0.222500 -0.115000
v 0.422500 -0.007500 -0.100000
v 0.422500 -0.007500 -0.115000
v -0.422500 0.207500 -0.100000
v -0.422500 0.207500 -0.115000
v -0.422500 0.007500 -0.100000
v -0.422500 0.007500 -0.115000
v -0.422500 0.222500 -0.100000
v -0.422500 0.222500 -0.115000
v -0.422500 -0.007500 -0.100000
v -0.422500 -0.007500 -0.115000
v 0.244500 0.007500 -0.100000
v 0.081500 0.007500 -0.100000
v -0.081500 0.007500 -0.100000
v -0.244500 0.007500 -0.100000
v -0.244500 0.007500 -0.115000
v -0.081500 0.007500 -0.115000
v 0.081500 0.007500 -0.115000
v 0.244500 0.007500 -0.115000
v -0.244500 0.207500 -0.100000
v -0.081500 0.207500 -0.100000
v 0.081500 0.207500 -0.100000
v 0.244500 0.207500 -0.100000
v 0.244500 0.207500 -0.115000
v 0.081500 0.207500 -0.115000
v -0.081500 0.207500 -0.115000
v -0.244500 0.207500 -0.115000
v -0.244500 0.222500 -0.100000
v -0.081500 0.222500 -0.100000
v 0.081500 0.222500 -0.100000
v 0.244500 0.222500 -0.100000
v 0.244500 0.222500 -0.115000
v 0.081500 0.222500 -0.115000
v -0.081500 0.222500 -0.115000
v -0.244500 0.222500 -0.115000
v 0.244500 -0.007500 -0.100000
v -0.244500 -0.007500 -0.100000
v -0.244500 -0.007500 -0.115000
v 0.244500 -0.007500 -0.115000
vn -0.0000 -0.0000 1.0000
vn -0.0000 -0.0000 -1.0000
vn -0.0000 1.0000 -0.0000
vn -0.0000 -1.0000 -0.0000
vn 1.0000 -0.0000 -0.0000
vn -1.0000 -0.0000 -0.0000
vt 0.125000 0.500000
vt 0.625000 0.500000
vt 0.625000 0.750000
vt 0.875000 0.750000
vt 0.325000 0.500000
vt 0.375000 0.500000
vt 0.375000 0.750000
vt 0.325000 0.750000
vt 0.825000 0.500000
vt 0.875000 0.500000
vt 0.825000 0.750000
vt 0.375000 0.950000
vt 0.625000 0.950000
vt 0.625000 1.000000
vt 0.375000 1.000000
vt 0.375000 0.450000
vt 0.625000 0.450000
vt 0.175000 0.500000
vt 0.675000 0.500000
vt 0.375000 0.000000
vt 0.625000 0.000000
vt 0.625000 0.250000
vt 0.375000 0.250000
vt 0.125000 0.750000
vt 0.625000 0.300000
vt 0.375000 0.300000
vt 0.675000 0.750000
vt 0.725000 0.750000
vt 0.775000 0.750000
vt 0.175000 0.750000
vt 0.225000 0.750000
vt 0.275000 0.750000
vt 0.625000 0.800000
vt 0.375000 0.800000
vt 0.625000 0.850000
vt 0.375000 0.850000
vt 0.625000 0.900000
vt 0.375000 0.900000
vt 0.725000 0.500000
vt 0.775000 0.500000
vt 0.225000 0.500000
vt 0.275000 0.500000
s 0
f 225/201/25 215/201/25 239/201/25 243/201/25
f 220/202/26 218/203/26 230/203/26 232/202/26
f 218/203/26 224/203/26 234/203/26 230/203/26
f 222/204/26 214/204/26 238/204/26 242/204/26
f 245/205/25 219/206/25 217/207/25 256/208/25
f 249/209/26 216/210/26 214/204/26 260/211/26
f 261/212/27 268/213/27 222/214/27 221/215/27
f 256/208/25 217/207/25 223/207/25 264/208/25
f 260/211/26 214/204/26 222/204/26 268/211/26
f 227/206/28 228/202/28 236/202/28 235/206/28
f 269/216/28 272/217/28 228/202/28 227/206/28
f 248/218/25 215/201/25 225/201/25 270/218/25
f 252/219/26 220/202/26 228/202/26 272/219/26
f 221/215/27 222/214/27 242/214/27 241/215/27
f 232/202/29 231/206/29 235/206/29 236/202/29
f 231/206/29 232/202/29 230/203/29 229/207/29
f 229/207/29 230/203/29 234/203/29 233/207/29
f 219/206/25 227/206/25 235/206/25 231/206/25
f 224/203/27 223/207/27 233/207/27 234/203/27
f 217/207/25 219/206/25 231/206/25 229/207/25
f 223/207/25 217/207/25 229/207/25 233/207/25
f 228/202/26 220/202/26 232/202/26 236/202/26
f 237/220/30 238/221/30 240/222/30 239/223/30
f 238/221/30 237/220/30 241/220/30 242/221/30
f 239/223/30 240/222/30 244/222/30 243/223/30
f 214/204/26 216/210/26 240/210/26 238/204/26
f 215/201/25 213/224/25 237/224/25 239/201/25
f 226/222/28 225/223/28 243/223/28 244/222/28
f 216/210/26 226/210/26 244/210/26 240/210/26
f 213/224/25 221/224/25 241/224/25 237/224/25
f 216/210/26 249/209/26 271/209/26 226/210/26
f 219/206/25 245/205/25 269/205/25 227/206/25
f 225/223/28 226/222/28 271/225/28 270/226/28
f 218/203/26 257/227/26 265/227/26 224/203/26
f 257/227/26 258/228/26 266/228/26 265/227/26
f 258/228/26 259/229/26 267/229/26 266/228/26
f 259/229/26 260/211/26 268/211/26 267/229/26
f 213/224/25 253/230/25 261/230/25 221/224/25
f 253/230/25 254/231/25 262/231/25 261/230/25
f 254/231/25 255/232/25 263/232/25 262/231/25
f 255/232/25 256/208/25 264/208/25 263/232/25
f 223/207/27 224/203/27 265/233/27 264/234/27
f 264/234/27 265/233/27 266/235/27 263/236/27
f 263/236/27 266/235/27 267/237/27 262/238/27
f 262/238/27 267/237/27 268/213/27 261/212/27
f 220/202/26 252/219/26 257/227/26 218/203/26
f 252/219/26 251/239/26 258/228/26 257/227/26
f 251/239/26 250/240/26 259/229/26 258/228/26
f 250/240/26 249/209/26 260/211/26 259/229/26
f 215/201/25 248/218/25 253/230/25 213/224/25
f 248/218/25 247/241/25 254/231/25 253/230/25
f 247/241/25 246/242/25 255/232/25 254/231/25
f 246/242/25 245/205/25 256/208/25 255/232/25
f 245/205/28 246/242/28 251/239/28 252/219/28
f 251/239/28 246/242/28 247/241/28 250/240/28
f 250/240/28 247/241/28 248/218/28 249/209/28
f 248/218/29 270/218/29 271/225/29 249/209/29
f 245/205/30 252/219/30 272/217/30 269/205/30
o Divisoria1
v 0.200000 0.222500 0.100000
v 0.205000 0.222500 0.100000
v 0.200000 0.222500 -0.100000
v 0.205000 0.222500 -0.100000
v 0.200000 0.007500 0.100000
v 0.205000 0.007500 0.100000
v 0.200000 0.007500 -0.100000
v 0.205000 0.007500 -0.100000
vn -0.0000 1.0000 -0.0000
vn -0.0000 -0.0000 -1.0000
vn -0.0000 -1.0000 -0.0000
vn -0.0000 -0.0000 1.0000
vn -1.0000 -0.0000 -0.0000
vn 1.0000 -0.0000 -0.0000
vt 0.375000 0.000000
vt 0.625000 0.000000
vt 0.625000 0.250000
vt 0.375000 0.250000
vt 0.625000 0.500000
vt 0.375000 0.500000
vt 0.625000 0.750000
vt 0.375000 0.750000
vt 0.625000 1.000000
vt 0.375000 1.000000
vt 0.125000 0.500000
vt 0.125000 0.750000
vt 0.875000 0.500000
vt 0.875000 0.750000
s 0
f 273/243/31 274/244/31 276/245/31 275/246/31
f 275/246/32 276/245/32 280/247/32 279/248/32
f 279/248/33 280/247/33 278/249/33 277/250/33
f 277/250/34 278/249/34 274/251/34 273/252/34
f 275/253/35 279/248/35 277/250/35 273/254/35
f 280/247/36 276/255/36 274/256/36 278/249/36
o Divisoria3
v -0.205000 0.222500 0.100000
v -0.200000 0.222500 0.100000
v -0.205000 0.222500 -0.100000
v -0.200000 0.222500 -0.100000
v -0.205000 0.007500 0.100000
v -0.200000 0.007500 0.100000
v -0.205000 0.007500 -0.100000
v -0.200000 0.007500 -0.100000
vn -0.0000 1.0000 -0.0000
vn -0.0000 -0.0000 -1.0000
vn -0.0000 -1.0000 -0.0000
vn -0.0000 -0.0000 1.0000
vn -1.0000 -0.0000 -0.0000
vn 1.0000 -0.0000 -0.0000
vt 0.375000 0.000000
vt 0.625000 0.000000
vt 0.625000 0.250000
vt 0.375000 0.250000
vt 0.625000 0.500000
vt 0.375000 0.500000
vt 0.625000 0.750000
vt 0.375000 0.750000
vt 0.625000 1.000000
vt 0.375000 1.000000
vt 0.125000 0.500000
vt 0.125000 0.750000
vt 0.875000 0.500000
vt 0.875000 0.750000
s 0
f 281/257/37 282/258/37 284/259/37 283/260/37
f 283/260/38 284/259/38 288/261/38 287/262/38
f 287/262/39 288/261/39 286/263/39 285/264/39
f 285/264/40 286/263/40 282/265/40 281/266/40
f 283/267/41 287/262/41 285/264/41 281/268/41
f 288/261/42 284/269/42 282/270/42 286/263/42
o Divisoria2
v -0.002500 0.222500 0.100000
v 0.002500 0.222500 0.100000
v -0.002500 0.222500 -0.100000
v 0.002500 0.222500 -0.100000
v -0.002500 0.007500 0.100000
v 0.002500 0.007500 0.100000
v -0.002500 0.007500 -0.100000
v 0.002500 0.007500 -0.100000
vn -0.0000 1.0000 -0.0000
vn -0.0000 -0.0000 -1.0000
vn -0.0000 -1.0000 -0.0000
vn -0.0000 -0.0000 1.0000
vn -1.0000 -0.0000 -0.0000
vn 1.0000 -0.0000 -0.0000
vt 0.375000 0.000000
vt 0.625000 0.000000
vt 0.625000 0.250000
vt 0.375000 0.250000
vt 0.625000 0.500000
vt 0.375000 0.500000
vt 0.625000 0.750000
vt 0.375000 0.750000
vt 0.625000 1.000000
vt 0.375000 1.000000
vt 0.125000 0.500000
vt 0.125000 0.750000
vt 0.875000 0.500000
vt 0.875000 0.750000
s 0
f 289/271/43 290/272/43 292/273/43 291/274/43
f 291/274/44 292/273/44 296/275/44 295/276/44
f 295/276/45 296/275/45 294/277/45 293/278/45
f 293/278/46 294/277/46 290/279/46 289/280/46
f 291/281/47 295/276/47 293/278/47 289/282/47
f 296/275/48 292/283/48 290/284/48 294/277/48
o Base.001
v -0.407500 -0.007500 -0.200000
v -0.407500 0.007500 -0.200000
v -0.407500 -0.007500 -0.400000
v -0.407500 0.007500 -0.400000
v 0.407500 -0.007500 -0.200000
v 0.407500 0.007500 -0.200000
v 0.407500 -0.007500 -0.400000
v 0.407500 0.007500 -0.400000
v 0.244500 -0.007500 -0.400000
v 0.081500 -0.007500 -0.400000
v -0.081500 -0.007500 -0.400000
v -0.244500 -0.007500 -0.400000
v -0.244500 0.007500 -0.400000
v -0.081500 0.007500 -0.400000
v 0.081500 0.007500 -0.400000
v 0.244500 0.007500 -0.400000
v -0.244500 -0.007500 -0.200000
v -0.081500 -0.007500 -0.200000
v 0.081500 -0.007500 -0.200000
v 0.244500 -0.007500 -0.200000
v 0.244500 0.007500 -0.200000
v 0.081500 0.007500 -0.200000
v -0.081500 0.007500 -0.200000
v -0.244500 0.007500 -0.200000
v -0.244500 -0.007500 -0.185000
v -0.081500 -0.007500 -0.185000
v 0.081500 -0.007500 -0.185000
v 0.244500 -0.007500 -0.185000
v 0.244500 0.007500 -0.185000
v 0.081500 0.007500 -0.185000
v -0.081500 0.007500 -0.185000
v -0.244500 0.007500 -0.185000
v 0.244500 -0.007500 -0.415000
v 0.081500 -0.007500 -0.415000
v -0.081500 -0.007500 -0.415000
v -0.244500 -0.007500 -0.415000
v -0.244500 0.007500 -0.415000
v -0.081500 0.007500 -0.415000
v 0.081500 0.007500 -0.415000
v 0.244500 0.007500 -0.415000
v -0.407500 -0.007500 -0.333333
v -0.407500 -0.007500 -0.266667
v -0.407500 0.007500 -0.266667
v -0.407500 0.007500 -0.333333
v 0.407500 -0.007500 -0.266667
v 0.407500 -0.007500 -0.333333
v 0.407500 0.007500 -0.333333
v 0.407500 0.007500 -0.266667
v 0.422500 -0.007500 -0.266667
v 0.422500 -0.007500 -0.333333
v 0.422500 0.007500 -0.333333
v 0.422500 0.007500 -0.266667
v -0.422500 -0.007500 -0.333333
v -0.422500 -0.007500 -0.266667
v -0.422500 0.007500 -0.266667
v -0.422500 0.007500 -0.333333
v 0.244500 0.007500 -0.333333
v 0.244500 0.007500 -0.266667
v 0.081500 0.007500 -0.333333
v 0.081500 0.007500 -0.266667
v -0.081500 0.007500 -0.333333
v -0.081500 0.007500 -0.266667
v -0.244500 0.007500 -0.333333
v -0.244500 0.007500 -0.266667
v -0.244500 -0.007500 -0.333333
v -0.244500 -0.007500 -0.266667
v -0.081500 -0.007500 -0.333333
v -0.081500 -0.007500 -0.266667
v 0.081500 -0.007500 -0.333333
v 0.081500 -0.007500 -0.266667
v 0.244500 -0.007500 -0.333333
v 0.244500 -0.007500 -0.266667
vn -0.0000 -1.0000 -0.0000
vn -0.0000 1.0000 -0.0000
vn -0.0000 -0.0000 -1.0000
vn -0.0000 -0.0000 1.0000
vn -1.0000 -0.0000 -0.0000
vn 1.0000 -0.0000 -0.0000
vt 0.325000 0.666667
vt 0.375000 0.666667
vt 0.375000 0.750000
vt 0.325000 0.750000
vt 0.825000 0.666667
vt 0.875000 0.666667
vt 0.875000 0.750000
vt 0.825000 0.750000
vt 0.825000 0.500000
vt 0.775000 0.500000
vt 0.725000 0.500000
vt 0.675000 0.500000
vt 0.325000 0.500000
vt 0.275000 0.500000
vt 0.225000 0.500000
vt 0.175000 0.500000
vt 0.375000 0.300000
vt 0.625000 0.300000
vt 0.625000 0.350000
vt 0.375000 0.350000
vt 0.625000 0.400000
vt 0.375000 0.400000
vt 0.625000 0.450000
vt 0.375000 0.450000
vt 0.675000 0.750000
vt 0.725000 0.750000
vt 0.775000 0.750000
vt 0.175000 0.750000
vt 0.225000 0.750000
vt 0.275000 0.750000
vt 0.375000 0.800000
vt 0.625000 0.800000
vt 0.625000 0.850000
vt 0.375000 0.850000
vt 0.625000 0.900000
vt 0.375000 0.900000
vt 0.625000 0.950000
vt 0.375000 0.950000
vt 0.625000 0.666667
vt 0.675000 0.666667
vt 0.625000 0.750000
vt 0.725000 0.666667
vt 0.775000 0.666667
vt 0.125000 0.666667
vt 0.175000 0.666667
vt 0.125000 0.750000
vt 0.225000 0.666667
vt 0.275000 0.666667
vt 0.325000 0.583333
vt 0.275000 0.583333
vt 0.225000 0.583333
vt 0.175000 0.583333
vt 0.125000 0.500000
vt 0.125000 0.583333
vt 0.825000 0.583333
vt 0.775000 0.583333
vt 0.725000 0.583333
vt 0.675000 0.583333
vt 0.625000 0.500000
vt 0.625000 0.583333
vt 0.875000 0.583333
vt 0.375000 0.083333
vt 0.625000 0.083333
vt 0.625000 0.166667
vt 0.375000 0.166667
vt 0.375000 0.583333
vt 0.875000 0.500000
vt 0.375000 0.500000
s 0
f 368/285/49 341/286/49 301/287/49 316/288/49
f 360/289/50 339/290/50 298/291/50 320/292/50
f 309/293/50 310/294/50 334/294/50 333/293/50
f 310/294/50 311/295/50 335/295/50 334/294/50
f 311/295/50 312/296/50 336/296/50 335/295/50
f 305/297/49 306/298/49 330/298/49 329/297/49
f 306/298/49 307/299/49 331/299/49 330/298/49
f 307/299/49 308/300/49 332/300/49 331/299/49
f 332/301/51 333/302/51 334/303/51 331/304/51
f 331/304/51 334/303/51 335/305/51 330/306/51
f 330/306/51 335/305/51 336/307/51 329/308/51
f 317/309/50 318/310/50 326/310/50 325/309/50
f 318/310/50 319/311/50 327/311/50 326/310/50
f 319/311/50 320/292/50 328/292/50 327/311/50
f 313/312/49 314/313/49 322/313/49 321/312/49
f 314/313/49 315/314/49 323/314/49 322/313/49
f 315/314/49 316/288/49 324/288/49 323/314/49
f 324/315/52 325/316/52 326/317/52 323/318/52
f 323/318/52 326/317/52 327/319/52 322/320/52
f 322/320/52 327/319/52 328/321/52 321/322/52
f 344/323/50 354/324/50 317/309/50 302/325/50
f 354/324/50 356/326/50 318/310/50 317/309/50
f 356/326/50 358/327/50 319/311/50 318/310/50
f 358/327/50 360/289/50 320/292/50 319/311/50
f 338/328/49 362/329/49 313/312/49 297/330/49
f 362/329/49 364/331/49 314/313/49 313/312/49
f 364/331/49 366/332/49 315/314/49 314/313/49
f 366/332/49 368/285/49 316/288/49 315/314/49
f 306/298/49 305/297/49 367/333/49 365/334/49
f 365/334/49 367/333/49 368/285/49 366/332/49
f 307/299/49 306/298/49 365/334/49 363/335/49
f 363/335/49 365/334/49 366/332/49 364/331/49
f 308/300/49 307/299/49 363/335/49 361/336/49
f 361/336/49 363/335/49 364/331/49 362/329/49
f 299/337/49 308/300/49 361/336/49 337/338/49
f 337/338/49 361/336/49 362/329/49 338/328/49
f 310/294/50 309/293/50 359/339/50 357/340/50
f 357/340/50 359/339/50 360/289/50 358/327/50
f 311/295/50 310/294/50 357/340/50 355/341/50
f 355/341/50 357/340/50 358/327/50 356/326/50
f 312/296/50 311/295/50 355/341/50 353/342/50
f 353/342/50 355/341/50 356/326/50 354/324/50
f 304/343/50 312/296/50 353/342/50 343/344/50
f 343/344/50 353/342/50 354/324/50 344/323/50
f 337/338/49 338/328/49 350/328/49 349/338/49
f 339/290/50 340/345/50 352/345/50 351/290/50
f 308/300/53 309/293/53 333/302/53 332/300/53
f 350/346/53 351/347/53 352/348/53 349/349/53
f 338/328/52 339/290/52 351/347/52 350/328/52
f 341/286/49 342/350/49 346/350/49 345/286/49
f 305/297/54 329/297/54 336/307/54 312/296/54
f 346/350/54 347/344/54 348/323/54 345/286/54
f 309/293/50 300/351/50 340/345/50 359/339/50
f 359/339/50 340/345/50 339/290/50 360/289/50
f 305/297/49 303/352/49 342/350/49 367/333/49
f 367/333/49 342/350/49 341/286/49 368/285/49
f 325/316/54 324/315/54 316/288/54 317/309/54
f 343/344/50 344/323/50 348/323/50 347/344/50
f 316/288/52 301/287/52 302/325/52 317/309/52
f 344/323/54 302/325/54 301/287/54 341/286/54
f 341/286/52 345/286/52 348/323/52 344/323/52
f 312/296/51 304/343/51 303/352/51 305/297/51
f 342/350/51 343/344/51 347/344/51 346/350/51
f 342/350/54 303/352/54 304/343/54 343/344/54
f 308/300/51 299/337/51 300/351/51 309/293/51
f 340/345/53 300/351/53 299/337/53 337/338/53
f 337/338/51 349/338/51 352/348/51 340/345/51
f 338/328/53 297/330/53 298/291/53 339/290/53
f 320/292/52 298/291/52 297/330/52 313/312/52
f 313/312/53 321/312/53 328/321/53 320/292/53
o Tras.001
v -0.407500 -0.007500 0.100000
v -0.407500 0.007500 0.100000
v -0.407500 -0.007500 -0.100000
v -0.407500 0.007500 -0.100000
v 0.407500 -0.007500 0.100000
v 0.407500 0.007500 0.100000
v 0.407500 -0.007500 -0.100000
v 0.407500 0.007500 -0.100000
v -0.407500 -0.007500 0.115000
v -0.407500 0.007500 0.115000
v 0.407500 -0.007500 0.115000
v 0.407500 0.007500 0.115000
v -0.407500 -0.007500 -0.115000
v -0.407500 0.007500 -0.115000
v 0.407500 -0.007500 -0.115000
v 0.407500 0.007500 -0.115000
v 0.422500 -0.007500 0.100000
v 0.422500 0.007500 0.100000
v 0.422500 -0.007500 -0.100000
v 0.422500 0.007500 -0.100000
v 0.422500 -0.007500 0.115000
v 0.422500 0.007500 0.115000
v 0.422500 -0.007500 -0.115000
v 0.422500 0.007500 -0.115000
v -0.422500 -0.007500 0.100000
v -0.422500 0.007500 0.100000
v -0.422500 -0.007500 -0.100000
v -0.422500 0.007500 -0.100000
v -0.422500 -0.007500 0.115000
v -0.422500 0.007500 0.115000
v -0.422500 -0.007500 -0.115000
v -0.422500 0.007500 -0.115000
v 0.244500 -0.007500 -0.100000
v 0.081500 -0.007500 -0.100000
v -0.081500 -0.007500 -0.100000
v -0.244500 -0.007500 -0.100000
v -0.244500 0.007500 -0.100000
v -0.081500 0.007500 -0.100000
v 0.081500 0.007500 -0.100000
v 0.244500 0.007500 -0.100000
v -0.244500 -0.007500 0.100000
v -0.081500 -0.007500 0.100000
v 0.081500 -0.007500 0.100000
v 0.244500 -0.007500 0.100000
v 0.244500 0.007500 0.100000
v 0.081500 0.007500 0.100000
v -0.081500 0.007500 0.100000
v -0.244500 0.007500 0.100000
v -0.244500 -0.007500 0.115000
v -0.081500 -0.007500 0.115000
v 0.081500 -0.007500 0.115000
v 0.244500 -0.007500 0.115000
v 0.244500 0.007500 0.115000
v 0.081500 0.007500 0.115000
v -0.081500 0.007500 0.115000
v -0.244500 0.007500 0.115000
v 0.244500 -0.007500 -0.115000
v -0.244500 -0.007500 -0.115000
v -0.244500 0.007500 -0.115000
v 0.244500 0.007500 -0.115000
vn -0.0000 -1.0000 -0.0000
vn -0.0000 1.0000 -0.0000
vn -0.0000 -0.0000 1.0000
vn -0.0000 -0.0000 -1.0000
vn 1.0000 -0.0000 -0.0000
vn -1.0000 -0.0000 -0.0000
vt 0.125000 0.500000
vt 0.625000 0.500000
vt 0.625000 0.750000
vt 0.875000 0.750000
vt 0.325000 0.500000
vt 0.375000 0.500000
vt 0.375000 0.750000
vt 0.325000 0.750000
vt 0.825000 0.500000
vt 0.875000 0.500000
vt 0.825000 0.750000
vt 0.375000 0.950000
vt 0.625000 0.950000
vt 0.625000 1.000000
vt 0.375000 1.000000
vt 0.375000 0.450000
vt 0.625000 0.450000
vt 0.175000 0.500000
vt 0.675000 0.500000
vt 0.375000 0.000000
vt 0.625000 0.000000
vt 0.625000 0.250000
vt 0.375000 0.250000
vt 0.125000 0.750000
vt 0.625000 0.300000
vt 0.375000 0.300000
vt 0.675000 0.750000
vt 0.725000 0.750000
vt 0.775000 0.750000
vt 0.175000 0.750000
vt 0.225000 0.750000
vt 0.275000 0.750000
vt 0.625000 0.800000
vt 0.375000 0.800000
vt 0.625000 0.850000
vt 0.375000 0.850000
vt 0.625000 0.900000
vt 0.375000 0.900000
vt 0.725000 0.500000
vt 0.775000 0.500000
vt 0.225000 0.500000
vt 0.275000 0.500000
s 0
f 381/353/55 371/353/55 395/353/55 399/353/55
f 376/354/56 374/355/56 386/355/56 388/354/56
f 374/355/56 380/355/56 390/355/56 386/355/56
f 378/356/56 370/356/56 394/356/56 398/356/56
f 401/357/55 375/358/55 373/359/55 412/360/55
f 405/361/56 372/362/56 370/356/56 416/363/56
f 417/364/57 424/365/57 378/366/57 377/367/57
f 412/360/55 373/359/55 379/359/55 420/360/55
f 416/363/56 370/356/56 378/356/56 424/363/56
f 383/358/58 384/354/58 392/354/58 391/358/58
f 425/368/58 428/369/58 384/354/58 383/358/58
f 404/370/55 371/353/55 381/353/55 426/370/55
f 408/371/56 376/354/56 384/354/56 428/371/56
f 377/367/57 378/366/57 398/366/57 397/367/57
f 388/354/59 387/358/59 391/358/59 392/354/59
f 387/358/59 388/354/59 386/355/59 385/359/59
f 385/359/59 386/355/59 390/355/59 389/359/59
f 375/358/55 383/358/55 391/358/55 387/358/55
f 380/355/57 379/359/57 389/359/57 390/355/57
f 373/359/55 375/358/55 387/358/55 385/359/55
f 379/359/55 373/359/55 385/359/55 389/359/55
f 384/354/56 376/354/56 388/354/56 392/354/56
f 393/372/60 394/373/60 396/374/60 395/375/60
f 394/373/60 393/372/60 397/372/60 398/373/60
f 395/375/60 396/374/60 400/374/60 399/375/60
f 370/356/56 372/362/56 396/362/56 394/356/56
f 371/353/55 369/376/55 393/376/55 395/353/55
f 382/374/58 381/375/58 399/375/58 400/374/58
f 372/362/56 382/362/56 400/362/56 396/362/56
f 369/376/55 377/376/55 397/376/55 393/376/55
f 372/362/56 405/361/56 427/361/56 382/362/56
f 375/358/55 401/357/55 425/357/55 383/358/55
f 381/375/58 382/374/58 427/377/58 426/378/58
f 374/355/56 413/379/56 421/379/56 380/355/56
f 413/379/56 414/380/56 422/380/56 421/379/56
f 414/380/56 415/381/56 423/381/56 422/380/56
f 415/381/56 416/363/56 424/363/56 423/381/56
f 369/376/55 409/382/55 417/382/55 377/376/55
f 409/382/55 410/383/55 418/383/55 417/382/55
f 410/383/55 411/384/55 419/384/55 418/383/55
f 411/384/55 412/360/55 420/360/55 419/384/55
f 379/359/57 380/355/57 421/385/57 420/386/57
f 420/386/57 421/385/57 422/387/57 419/388/57
f 419/388/57 422/387/57 423/389/57 418/390/57
f 418/390/57 423/389/57 424/365/57 417/364/57
f 376/354/56 408/371/56 413/379/56 374/355/56
f 408/371/56 407/391/56 414/380/56 413/379/56
f 407/391/56 406/392/56 415/381/56 414/380/56
f 406/392/56 405/361/56 416/363/56 415/381/56
f 371/353/55 404/370/55 409/382/55 369/376/55
f 404/370/55 403/393/55 410/383/55 409/382/55
f 403/393/55 402/394/55 411/384/55 410/383/55
f 402/394/55 401/357/55 412/360/55 411/384/55
f 401/357/58 402/394/58 407/391/58 408/371/58
f 407/391/58 402/394/58 403/393/58 406/392/58
f 406/392/58 403/393/58 404/370/58 405/361/58
f 404/370/59 426/370/59 427/377/59 405/361/59
f 401/357/60 408/371/60 428/369/60 425/357/60
o Esquerda.001
v -0.107500 -0.007500 0.400000
v -0.107500 0.007500 0.400000
v -0.107500 -0.007500 0.200000
v -0.107500 0.007500 0.200000
v 0.107500 -0.007500 0.400000
v 0.107500 0.007500 0.400000
v 0.107500 -0.007500 0.200000
v 0.107500 0.007500 0.200000
v 0.122500 -0.007500 0.400000
v 0.122500 0.007500 0.400000
v 0.122500 -0.007500 0.200000
v 0.122500 0.007500 0.200000
v -0.107500 -0.007500 0.266667
v -0.107500 -0.007500 0.333333
v -0.107500 0.007500 0.333333
v -0.107500 0.007500 0.266667
v 0.107500 -0.007500 0.333333
v 0.107500 -0.007500 0.266667
v 0.107500 0.007500 0.266667
v 0.107500 0.007500 0.333333
v 0.122500 -0.007500 0.333333
v 0.122500 -0.007500 0.266667
v 0.122500 0.007500 0.266667
v 0.122500 0.007500 0.333333
vn -1.0000 -0.0000 -0.0000
vn -0.0000 -0.0000 -1.0000
vn -0.0000 1.0000 -0.0000
vn -0.0000 -0.0000 1.0000
vn -0.0000 -1.0000 -0.0000
vn 1.0000 -0.0000 -0.0000
vt 0.375000 0.166667
vt 0.625000 0.166667
vt 0.625000 0.250000
vt 0.375000 0.250000
vt 0.625000 0.500000
vt 0.375000 0.500000
vt 0.625000 0.666667
vt 0.625000 0.750000
vt 0.375000 0.750000
vt 0.625000 1.000000
vt 0.375000 1.000000
vt 0.125000 0.666667
vt 0.375000 0.666667
vt 0.125000 0.750000
vt 0.875000 0.666667
vt 0.875000 0.750000
vt 0.375000 0.583333
vt 0.625000 0.583333
vt 0.875000 0.500000
vt 0.875000 0.583333
vt 0.125000 0.500000
vt 0.125000 0.583333
vt 0.375000 0.000000
vt 0.625000 0.000000
vt 0.625000 0.083333
vt 0.375000 0.083333
s 0
f 441/395/61 444/396/61 432/397/61 431/398/61
f 431/398/62 432/397/62 436/399/62 435/400/62
f 448/401/63 434/402/63 438/402/63 452/401/63
f 433/403/64 434/402/64 430/404/64 429/405/64
f 442/406/65 445/407/65 433/403/65 429/408/65
f 448/401/63 443/409/63 430/410/63 434/402/63
f 449/407/66 452/401/66 438/402/66 437/403/66
f 435/400/62 436/399/62 440/399/62 439/400/62
f 434/402/64 433/403/64 437/403/64 438/402/64
f 446/411/65 435/400/65 439/400/65 450/411/65
f 433/403/65 445/407/65 449/407/65 437/403/65
f 445/407/62 448/401/62 452/401/62 449/407/62
f 439/400/66 440/399/66 451/412/66 450/411/66
f 446/411/64 450/411/64 451/412/64 447/412/64
f 436/399/63 432/413/63 444/414/63 447/412/63
f 447/412/63 444/414/63 443/409/63 448/401/63
f 431/415/65 435/400/65 446/411/65 441/416/65
f 441/416/65 446/411/65 445/407/65 442/406/65
f 436/399/63 447/412/63 451/412/63 440/399/63
f 445/407/66 446/411/66 447/412/66 448/401/66
f 429/417/61 430/418/61 443/419/61 442/420/61
f 442/420/61 443/419/61 444/396/61 441/395/61
o Divisoria1.001
v -0.407500 -0.002500 0.400000
v -0.407500 0.002500 0.400000
v -0.407500 -0.002500 0.200000
v -0.407500 0.002500 0.200000
v -0.192500 -0.002500 0.400000
v -0.192500 0.002500 0.400000
v -0.192500 -0.002500 0.200000
v -0.192500 0.002500 0.200000
vn -1.0000 -0.0000 -0.0000
vn -0.0000 -0.0000 -1.0000
vn 1.0000 -0.0000 -0.0000
vn -0.0000 -0.0000 1.0000
vn -0.0000 -1.0000 -0.0000
vn -0.0000 1.0000 -0.0000
vt 0.375000 0.000000
vt 0.625000 0.000000
vt 0.625000 0.250000
vt 0.375000 0.250000
vt 0.625000 0.500000
vt 0.375000 0.500000
vt 0.625000 0.750000
vt 0.375000 0.750000
vt 0.625000 1.000000
vt 0.375000 1.000000
vt 0.125000 0.500000
vt 0.125000 0.750000
vt 0.875000 0.500000
vt 0.875000 0.750000
s 0
f 453/421/67 454/422/67 456/423/67 455/424/67
f 455/424/68 456/423/68 460/425/68 459/426/68
f 459/426/69 460/425/69 458/427/69 457/428/69
f 457/428/70 458/427/70 454/429/70 453/430/70
f 455/431/71 459/426/71 457/428/71 453/432/71
f 460/425/72 456/433/72 454/434/72 458/427/72
